<svg xmlns="http://www.w3.org/2000/svg" viewBox="0 -960 960 960">
  <!-- Primer Path: Parte de tu SVG original -->
  <path d="M50.4 78.5a75.1 75.1 0 0 0-28.5 6.9l24.2-65.7c.7-2 1.9-3.2 3.4-3.2h29c1.5 0 2.7 1.2 3.4 3.2l24.2 65.7s-11.6-7-28.5-7L67 45.5c-.4-1.7-1.6-2.8-2.9-2.8-1.3 0-2.5 1.1-2.9 2.7L50.4 78.5Zm-1.1 28.2Zm-4.2-20.2c-2 6.6-.6 15.8 4.2 20.2a17.5 17.5 0 0 1 .2-.7 5.5 5.5 0 0 1 5.7-4.5c2.8.1 4.3 1.5 4.7 4.7.2 1.1.2 2.3.2 3.5v.4c0 2.7.7 5.2 2.2 7.4a13 13 0 0 0 5.7 4.9v-.3l-.2-.3c-1.8-5.6-.5-9.5 4.4-12.8l1.5-1a73 73 0 0 0 3.2-2.2 16 16 0 0 0 6.8-11.4c.3-2 .1-4-.6-6l-.8.6-1.6 1a37 37 0 0 1-22.4 2.7c-5-.7-9.7-2-13.2-6.2Z" />

  <!-- Segundo Path: El ícono del tema -->
  <path d="M280-120q-83 0-141.5-58.5T80-320q0-73 45.5-127.5T240-516v83q-35 12-57.5 43T160-320q0 50 35 85t85 35q50 0 85-35t35-85v-40h235q8-9 19.5-14.5T680-380q25 0 42.5 17.5T740-320q0 25-17.5 42.5T680-260q-14 0-25.5-5.5T635-280H476q-14 69-68.5 114.5T280-120Zm400 0q-56 0-101.5-27.5T507-220h107q14 10 31 15t35 5q50 0 85-35t35-85q0-50-35-85t-85-35q-20 0-37 5.5T611-418L489-621q-21-4-35-20t-14-39q0-25 17.5-42.5T500-740q25 0 42.5 17.5T560-680v8.5q0 3.5-2 8.5l87 146q8-2 17-2.5t18-.5q83 0 141.5 58.5T880-320q0 83-58.5 141.5T680-120ZM280-260q-25 0-42.5-17.5T220-320q0-22 14-38t34-21l94-156q-29-27-45.5-64.5T300-680q0-83 58.5-141.5T500-880q83 0 141.5 58.5T700-680h-80q0-50-35-85t-85-35q-50 0-85 35t-35 85q0 43 26 75.5t66 41.5L337-338q2 5 2.5 9t.5 9q0 25-17.5 42.5T280-260Z" />
  
  <style>
    path {
      fill: #000; /* Color predeterminado para el tema claro */
    }
    @media (prefers-color-scheme: dark) {
      path {
        fill: #FFF; /* Cambiar color cuando el tema sea oscuro */
      }
    }
  </style>
</svg>
